<svg width="125" height="125" viewBox="0 0 125 125" fill="none" xmlns="http://www.w3.org/2000/svg">
<g clip-path="url(#clip0_68_15)">
<path d="M52.7307 41.1386H92.1573C100.743 41.1386 108.553 44.4689 114.37 49.8944C115.461 46.4534 116.057 42.7825 116.057 38.9752C116.057 19.0532 99.908 2.90442 79.986 2.90442H36.3348C16.4129 2.90442 0.264038 19.0532 0.264038 38.9752V92.5235L20.2116 75.046C20.1775 74.4157 20.152 74.3561 20.152 73.7258C20.152 55.7288 34.7421 41.1471 52.7307 41.1471V41.1386Z" fill="url(#paint0_linear_68_15)"/>
<path d="M114.362 49.8944C109.737 64.476 96.0922 75.046 79.9775 75.046H20.2115V75.6081C21.191 92.7194 35.3724 106.296 52.7306 106.296H106.117L124.736 122.079V73.7088C124.736 64.2971 120.741 55.8309 114.37 49.8859L114.362 49.8944Z" fill="url(#paint1_linear_68_15)"/>
<path d="M79.9775 75.0546C96.0923 75.0546 109.737 64.4846 114.362 49.9029C108.545 44.4774 100.734 41.1472 92.1488 41.1472H52.7221C34.7251 41.1472 20.1434 55.7373 20.1434 73.7259C20.1434 74.3647 20.169 74.4243 20.2031 75.046H79.9775V75.0546Z" fill="url(#paint2_linear_68_15)"/>
<path d="M55.9928 58.3776C55.9928 56.2398 54.2552 54.5023 52.1174 54.5023C49.9795 54.5023 48.242 56.2398 48.242 58.3776C48.242 60.5155 49.9795 62.253 52.1174 62.253C54.2552 62.253 55.9928 60.5155 55.9928 58.3776Z" fill="#FCF7EC"/>
<path d="M71.128 58.3776C71.128 56.2398 69.3905 54.5023 67.2526 54.5023C65.1148 54.5023 63.3773 56.2398 63.3773 58.3776C63.3773 60.5155 65.1148 62.253 67.2526 62.253C69.3905 62.253 71.128 60.5155 71.128 58.3776Z" fill="#FCF7EC"/>
<path d="M86.2718 58.3776C86.2718 56.2398 84.5343 54.5023 82.3964 54.5023C80.2586 54.5023 78.5211 56.2398 78.5211 58.3776C78.5211 60.5155 80.2586 62.253 82.3964 62.253C84.5343 62.253 86.2718 60.5155 86.2718 58.3776Z" fill="#FCF7EC"/>
</g>
<defs>
<linearGradient id="paint0_linear_68_15" x1="89.4317" y1="12.776" x2="7.66558" y2="68.1385" gradientUnits="userSpaceOnUse">
<stop stop-color="#D7524D"/>
<stop offset="1" stop-color="#D7974D"/>
</linearGradient>
<linearGradient id="paint1_linear_68_15" x1="48.1228" y1="53.2332" x2="124.353" y2="109.873" gradientUnits="userSpaceOnUse">
<stop stop-color="#5765F2"/>
<stop offset="0.798077" stop-color="#7F70FD"/>
</linearGradient>
<linearGradient id="paint2_linear_68_15" x1="62.1763" y1="47.697" x2="75.804" y2="74.9524" gradientUnits="userSpaceOnUse">
<stop stop-color="#B1B543"/>
<stop offset="1" stop-color="#01A5B7"/>
</linearGradient>
<clipPath id="clip0_68_15">
<rect width="125" height="125" fill="white"/>
</clipPath>
</defs>
</svg>
