<svg width="225" height="257" viewBox="0 0 225 257" fill="none" xmlns="http://www.w3.org/2000/svg">
<g clip-path="url(#clip0_68_52)">
<path d="M98.8229 57.594H154.02C166.04 57.594 176.974 62.2564 185.119 69.8521C186.645 65.0348 187.48 59.8954 187.48 54.5653C187.48 26.6745 164.871 4.06616 136.98 4.06616H75.8687C47.978 4.06616 25.3696 26.6745 25.3696 54.5653V129.533L53.2962 105.064C53.2485 104.182 53.2127 104.099 53.2127 103.216C53.2127 78.0202 73.6389 57.606 98.8229 57.606V57.594Z" fill="url(#paint0_linear_68_52)"/>
<path d="M185.107 69.8521C178.632 90.2664 159.529 105.064 136.969 105.064H53.2962V105.851C54.6675 129.807 74.5213 148.814 98.8229 148.814H173.564L199.63 170.91V103.192C199.63 90.016 194.038 78.1633 185.119 69.8402L185.107 69.8521Z" fill="url(#paint1_linear_68_52)"/>
<path d="M136.969 105.076C159.529 105.076 178.632 90.2783 185.107 69.8641C176.962 62.2683 166.028 57.606 154.008 57.606H98.811C73.6151 57.606 53.2008 78.0322 53.2008 103.216C53.2008 104.11 53.2366 104.194 53.2843 105.064H136.969V105.076Z" fill="url(#paint2_linear_68_52)"/>
<path d="M103.39 81.7287C103.39 78.7357 100.957 76.3032 97.9643 76.3032C94.9714 76.3032 92.5388 78.7357 92.5388 81.7287C92.5388 84.7217 94.9714 87.1542 97.9643 87.1542C100.957 87.1542 103.39 84.7217 103.39 81.7287Z" fill="#FCF7EC"/>
<path d="M124.579 81.7287C124.579 78.7357 122.147 76.3032 119.154 76.3032C116.161 76.3032 113.728 78.7357 113.728 81.7287C113.728 84.7217 116.161 87.1542 119.154 87.1542C122.147 87.1542 124.579 84.7217 124.579 81.7287Z" fill="#FCF7EC"/>
<path d="M145.78 81.7287C145.78 78.7357 143.348 76.3032 140.355 76.3032C137.362 76.3032 134.929 78.7357 134.929 81.7287C134.929 84.7217 137.362 87.1542 140.355 87.1542C143.348 87.1542 145.78 84.7217 145.78 81.7287Z" fill="#FCF7EC"/>
</g>
<g filter="url(#filter0_d_68_52)">
<path d="M191.738 223.919H191.238C190.497 223.919 189.805 223.831 189.16 223.662C188.537 223.438 187.986 223.196 187.506 222.934C185.502 221.758 184.423 219.445 184.423 215.78C184.423 214.423 184.581 213.351 184.877 212.545C185.223 211.681 185.691 211.012 186.268 210.516L186.276 210.509L186.283 210.503C186.872 209.956 187.593 209.55 188.456 209.292L188.467 209.289L188.477 209.285C189.38 208.969 190.402 208.695 191.545 208.466L191.908 208.394L191.944 208.026C191.992 207.547 192.016 207.089 192.016 206.653C192.016 206.205 192.039 205.757 192.084 205.309L192.085 205.298C192.222 203.563 192.494 202.175 192.889 201.121C193.331 200.062 193.871 199.278 194.492 198.74L194.493 198.739C195.085 198.221 195.777 197.846 196.574 197.616L196.923 197.526C197.947 197.304 199.139 197.19 200.504 197.19C201.823 197.19 202.969 197.304 203.946 197.526C204.892 197.741 205.699 198.147 206.376 198.739L206.39 198.751C207.049 199.286 207.584 200.064 207.978 201.116L207.981 201.124L207.985 201.132C208.422 202.182 208.739 203.561 208.922 205.287V206.001L209.453 205.967C210.914 205.876 212.303 205.9 213.62 206.036C214.919 206.17 215.932 206.48 216.685 206.94L216.694 206.945C218.704 208.117 219.79 210.454 219.79 214.177C219.79 216.801 219.133 218.555 217.943 219.581L217.936 219.587C216.741 220.654 214.951 221.351 212.502 221.623L210.621 221.832L210.176 221.881V222.329C210.176 223.155 210.153 223.934 210.107 224.666C210.069 225.279 210.012 225.858 209.942 226.404C209.328 226.604 208.729 226.859 208.144 227.168L207.853 227.327C207.129 227.714 206.452 228.173 205.824 228.705L205.816 228.712L205.809 228.717C205.237 229.242 204.733 229.794 204.298 230.372C203.857 230.91 203.524 231.442 203.314 231.966L203.308 231.98L203.305 231.994C203.181 232.364 203.17 232.744 203.314 233.104L203.322 233.124L203.331 233.142C203.472 233.425 203.69 233.643 203.973 233.784L204.022 233.808L204.075 233.821C204.333 233.885 204.594 233.886 204.851 233.825L204.852 233.827C205.245 233.748 205.529 233.501 205.685 233.146L205.686 233.147C206.484 231.596 207.561 230.412 208.916 229.582C210.316 228.752 211.766 228.41 213.278 228.539V228.54C214.245 228.628 215.166 228.868 216.044 229.263L216.053 229.267C216.947 229.65 217.717 230.247 218.365 231.068L218.374 231.08L218.384 231.09C219.068 231.86 219.594 232.857 219.949 234.1L219.951 234.108L219.954 234.116C220.347 235.338 220.485 236.826 220.349 238.592L220.349 238.601C220.261 240.047 219.824 241.328 219.043 242.457C218.251 243.601 217.215 244.551 215.927 245.306L215.918 245.311L215.909 245.317C214.664 246.118 213.186 246.725 211.467 247.132H211.464C209.786 247.541 208.037 247.746 206.217 247.746C203.127 247.746 200.692 247.262 198.878 246.332L198.522 246.139L198.515 246.135L198.171 245.938C196.59 244.998 195.352 243.721 194.449 242.1L194.261 241.748C193.319 239.862 192.681 237.555 192.361 234.812H192.362C192.079 232.348 191.884 229.651 191.778 226.72L191.738 225.45V223.919Z" fill="url(#paint3_linear_68_52)" stroke="#32B08E"/>
<path d="M159.944 204.227C165.467 204.227 169.779 205.194 172.924 207.081C175.865 208.846 178.051 211.521 179.472 215.14L179.746 215.876C180.336 217.555 180.77 219.471 181.045 221.625L181.047 221.637C181.368 223.747 181.529 225.951 181.529 228.25L181.53 228.26C181.576 230.559 181.46 232.882 181.184 235.229L181.183 235.238C180.952 237.589 180.607 239.823 180.147 241.939C179.698 243.958 178.903 245.415 177.8 246.369C176.702 247.319 175.248 247.816 173.39 247.816C171.52 247.816 170.073 247.36 169 246.497C167.928 245.635 167.172 244.32 166.772 242.495L166.52 241.347L165.868 242.325C164.337 244.622 162.461 246.198 160.245 247.084L160.243 247.086C158.033 247.988 155.59 248.443 152.908 248.443C150.953 248.443 149.143 248.192 147.476 247.696C145.813 247.202 144.36 246.463 143.114 245.484L143.112 245.483L142.891 245.306C141.801 244.408 140.923 243.295 140.256 241.961C139.553 240.554 139.195 238.937 139.195 237.099C139.195 235.442 139.485 233.957 140.056 232.636C140.602 231.426 141.318 230.355 142.203 229.421L142.594 229.029L142.601 229.022C143.67 227.952 144.944 227.08 146.426 226.406C147.923 225.726 149.537 225.203 151.269 224.838L151.268 224.837C154.559 224.178 157.356 223.164 159.645 221.781L159.652 221.778C161.928 220.355 163.681 218.729 164.89 216.891L164.889 216.89C165.184 216.47 165.303 215.996 165.162 215.503C165.037 215.065 164.78 214.71 164.402 214.458H164.401C164.057 214.198 163.652 214.109 163.222 214.169C162.729 214.191 162.334 214.457 162.045 214.861C161.374 215.801 160.543 216.701 159.547 217.561C158.605 218.368 157.549 219.065 156.376 219.652C155.205 220.237 153.917 220.713 152.51 221.076C151.157 221.392 149.757 221.55 148.309 221.55C145.64 221.55 143.716 220.939 142.449 219.802C141.16 218.599 140.518 217.107 140.518 215.292C140.518 213.74 140.957 212.349 141.836 211.106L142.018 210.859L142.023 210.853C143.043 209.477 144.426 208.29 146.186 207.297C147.946 206.304 150.01 205.554 152.384 205.052L152.393 205.05C154.768 204.502 157.285 204.227 159.944 204.227ZM163.167 230.145C162.725 229.997 162.294 230.078 161.931 230.368L161.924 230.373C160.598 231.471 159.277 232.381 157.96 233.108C156.659 233.825 155.099 234.415 153.274 234.871L153.255 234.876L153.237 234.882C152.809 235.025 152.506 235.328 152.364 235.756L152.354 235.785L152.347 235.816C152.28 236.151 152.319 236.497 152.433 236.839C152.553 237.199 152.761 237.52 153.041 237.8L153.077 237.835L153.118 237.862C153.517 238.129 153.991 238.209 154.495 238.153L154.509 238.152C156.253 237.909 157.919 237.304 159.506 236.342L159.516 236.336C161.064 235.351 162.497 234.316 163.814 233.235L163.815 233.236L163.823 233.229C164.221 232.887 164.485 232.457 164.485 231.943C164.485 231.515 164.359 231.123 164.096 230.794C163.851 230.488 163.538 230.268 163.167 230.145Z" fill="url(#paint4_linear_68_52)" stroke="#32B08E"/>
</g>
<g filter="url(#filter1_d_68_52)">
<path d="M108.29 224.488C106.293 224.349 104.83 223.606 103.901 222.259C102.972 220.912 102.507 219.263 102.507 217.312C102.507 216.476 102.623 215.663 102.856 214.874C103.088 214.084 103.436 213.411 103.901 212.853C104.365 212.25 104.969 211.785 105.712 211.46C106.455 211.135 107.315 211.019 108.29 211.112C112.145 211.437 115.745 211.623 119.089 211.669C122.479 211.669 126.102 211.483 129.957 211.112C130.979 211.019 131.838 211.135 132.535 211.46C133.278 211.785 133.882 212.25 134.346 212.853C134.857 213.411 135.229 214.084 135.461 214.874C135.693 215.663 135.809 216.476 135.809 217.312C135.809 219.263 135.345 220.912 134.416 222.259C133.487 223.606 131.978 224.349 129.887 224.488C127.983 224.628 126.149 224.744 124.384 224.837C122.619 224.93 120.854 224.976 119.089 224.976C117.37 224.976 115.628 224.93 113.863 224.837C112.099 224.744 110.241 224.628 108.29 224.488Z" fill="url(#paint5_linear_68_52)"/>
<path d="M130.002 211.61C130.965 211.523 131.73 211.636 132.324 211.913V211.914L132.334 211.918C133.005 212.211 133.54 212.625 133.95 213.158L133.963 213.175L133.978 213.191C134.433 213.687 134.768 214.292 134.981 215.015C135.199 215.758 135.309 216.523 135.309 217.312C135.309 219.181 134.865 220.727 134.004 221.975C133.186 223.162 131.838 223.857 129.854 223.989L129.851 223.99C127.95 224.129 126.118 224.245 124.357 224.338C122.601 224.43 120.844 224.476 119.088 224.476C117.379 224.476 115.646 224.43 113.89 224.338C112.129 224.245 110.274 224.129 108.326 223.99H108.325C106.442 223.859 105.135 223.169 104.312 221.975C103.451 220.727 103.007 219.181 103.007 217.312C103.007 216.523 103.117 215.758 103.335 215.015C103.551 214.283 103.869 213.672 104.285 213.174L104.292 213.166L104.297 213.158C104.707 212.625 105.242 212.211 105.913 211.918C106.563 211.633 107.335 211.523 108.243 211.609L108.248 211.61C112.112 211.936 115.724 212.122 119.082 212.169H119.088C122.496 212.169 126.134 211.982 130.001 211.609L130.002 211.61Z" stroke="#4E88BF"/>
</g>
<g filter="url(#filter2_d_68_52)">
<path d="M66.4238 188.621C67.7434 188.621 68.8894 188.735 69.8662 188.957C70.8122 189.172 71.6181 189.577 72.2949 190.17L72.3018 190.175L72.3096 190.181C72.9687 190.717 73.5042 191.495 73.8984 192.547L73.9014 192.554L73.9043 192.563C74.3429 193.616 74.6608 195.001 74.8438 196.734V196.735C74.8895 197.239 74.9352 197.884 74.9814 198.671L74.9824 198.673C75.0287 199.413 75.0747 200.224 75.1211 201.105V201.107C75.1675 201.943 75.2143 202.779 75.2607 203.615V203.617C75.3006 204.295 75.3209 204.901 75.3262 205.435C74.0411 206.433 72.9815 207.481 72.1553 208.583C71.2923 209.733 70.5304 211.09 69.8682 212.65C69.6517 213.137 69.5703 213.633 69.7051 214.105L69.708 214.116L69.7588 214.256C69.877 214.551 70.0535 214.807 70.3037 214.995C70.6058 215.221 70.9606 215.299 71.3291 215.225L71.3594 215.218L71.3896 215.209C71.8142 215.067 72.1329 214.757 72.3623 214.355L72.3691 214.343L72.375 214.331C72.7409 213.599 73.1298 212.89 73.541 212.205C73.9506 211.522 74.4068 210.838 74.9092 210.153L74.9131 210.147C76.3585 208.115 78.0389 206.642 79.9502 205.709L79.959 205.705C81.8861 204.719 83.9217 204.227 86.0713 204.227C88.2337 204.227 90.1013 204.655 91.6895 205.493L91.6943 205.495C93.3446 206.342 94.7008 207.499 95.7686 208.967C96.8437 210.446 97.655 212.178 98.1982 214.17L98.2021 214.182C98.7905 216.128 99.0869 218.217 99.0869 220.448C99.0869 222.068 99.0638 223.619 99.0176 225.099L99.0166 225.107V225.115C99.0166 226.544 98.9711 227.974 98.8789 229.403C98.7864 230.837 98.6701 232.295 98.5312 233.776C98.3922 235.213 98.2304 236.743 98.0449 238.366V238.369C97.9096 239.632 97.6392 240.798 97.2373 241.87L97.2354 241.876C96.8389 242.977 96.2692 243.915 95.5303 244.698L95.5254 244.703L95.5205 244.709C94.8312 245.484 93.9659 246.092 92.915 246.53L92.9033 246.535L92.8916 246.541C91.9038 247.013 90.7265 247.257 89.3457 247.257C87.9164 247.257 86.6893 247.012 85.6523 246.537L85.6436 246.533L85.2715 246.361C84.4213 245.941 83.6732 245.388 83.0244 244.702C82.4176 244.017 81.9225 243.213 81.542 242.283L81.3857 241.876L81.3838 241.87L81.2393 241.464C80.9164 240.505 80.6946 239.474 80.5762 238.369L80.5752 238.359L80.415 237.013C80.268 235.673 80.16 234.345 80.0908 233.031C80.0444 232.126 79.9976 231.22 79.9512 230.315C79.9047 229.409 79.8589 228.503 79.8125 227.597L79.8096 227.556L79.8008 227.515L79.7529 227.329C79.6436 226.963 79.4584 226.647 79.1797 226.412L79.0332 226.301C78.7266 226.067 78.375 225.939 77.9893 225.939C77.578 225.939 77.1957 226.043 76.874 226.28C76.5548 226.515 76.3352 226.851 76.1943 227.246L76.1699 227.316L76.166 227.389C76.0965 228.78 76.0135 230.17 75.918 231.56L75.8184 232.951L75.8174 232.963C75.7249 234.765 75.5863 236.568 75.4014 238.371C75.2667 239.626 74.9764 240.786 74.5322 241.852L74.5225 241.876C74.1238 242.983 73.5745 243.925 72.8779 244.709C72.1887 245.484 71.3234 246.092 70.2725 246.53L70.2607 246.535L70.249 246.541C69.2612 247.013 68.0839 247.257 66.7031 247.257C65.2738 247.257 64.0467 247.012 63.0098 246.537L63.001 246.533L62.6289 246.361C61.7787 245.941 61.0307 245.388 60.3818 244.702C59.6881 243.919 59.1407 242.98 58.7432 241.876L58.7412 241.87L58.5967 241.464C58.2742 240.506 58.0521 239.476 57.9336 238.373H57.9346C57.7033 236.06 57.5178 233.793 57.3789 231.573L57.1006 224.677V222.258C57.1006 220.265 57.1236 218.179 57.1699 216V215.999C57.2163 213.773 57.2632 211.547 57.3096 209.321C57.4024 207.092 57.494 204.908 57.5869 202.772C57.7259 200.596 57.866 198.581 58.0049 196.729C58.1421 194.991 58.4149 193.602 58.8105 192.547C59.2049 191.495 59.7402 190.717 60.3994 190.181L60.4131 190.17C61.0053 189.651 61.6969 189.276 62.4941 189.047L62.8428 188.957C63.867 188.735 65.0592 188.621 66.4238 188.621Z" fill="url(#paint6_linear_68_52)" stroke="#7F70FD"/>
<path d="M32.7734 187.994C35.9525 187.994 38.7986 188.247 41.3145 188.751H41.3164C43.8763 189.253 46.102 190.028 48 191.067L48.0078 191.072L48.0166 191.076C49.348 191.741 50.3175 192.57 50.9561 193.549L50.9609 193.555L50.9648 193.562C51.665 194.569 52.1002 195.657 52.2744 196.833L52.2754 196.843L52.2773 196.854C52.4957 197.99 52.476 199.175 52.2109 200.414C51.9432 201.618 51.4963 202.78 50.8691 203.9L50.8652 203.908C50.2382 205.072 49.4548 206.125 48.5137 207.066C47.5793 208 46.5366 208.731 45.3857 209.262C44.2889 209.744 43.1012 210.009 41.8174 210.053C40.6124 210.051 39.3454 209.728 38.0127 209.062C37.3629 208.714 36.6024 208.446 35.7383 208.254H35.7373C34.8556 208.013 33.866 207.894 32.7734 207.894C31.0531 207.894 29.5636 208.157 28.3223 208.704C27.0983 209.242 26.0822 209.983 25.2852 210.929L25.2793 210.935L25.2744 210.941C24.5403 211.871 23.9799 212.921 23.5908 214.088L23.5879 214.098L23.585 214.107C23.2456 215.271 23.0771 216.503 23.0771 217.8C23.0772 219.098 23.2452 220.351 23.583 221.557L23.5889 221.575C23.9772 222.788 24.5376 223.865 25.2744 224.798L25.2793 224.804L25.2852 224.81C26.0822 225.757 27.0983 226.497 28.3223 227.036C29.5636 227.582 31.0531 227.844 32.7734 227.844C33.8696 227.844 34.8592 227.75 35.7383 227.554L35.751 227.551L35.7637 227.547C36.6206 227.309 37.3718 227.02 38.0127 226.676L38.0137 226.677C39.344 226.012 40.6316 225.711 41.8828 225.754H41.9004C43.2187 225.754 44.4423 226.04 45.5781 226.608C46.7292 227.184 47.7484 227.958 48.6367 228.935L48.6445 228.944L48.6533 228.953C49.4742 229.774 50.176 230.698 50.7588 231.726L51.001 232.173C51.5825 233.292 51.984 234.453 52.207 235.657C52.4283 236.852 52.428 238.02 52.208 239.164L52.2061 239.171L52.2051 239.179C52.0326 240.257 51.6017 241.276 50.9014 242.239L50.8955 242.248C50.2031 243.243 49.2442 244.075 48.0039 244.74L48 244.742C46.1048 245.78 43.8816 246.53 41.3242 246.987L41.3145 246.989C38.7986 247.492 35.9525 247.746 32.7734 247.746C27.2911 247.746 22.7417 246.962 19.1064 245.418H19.1074C15.7275 243.963 12.9838 242.014 10.8643 239.576L10.4492 239.082C8.31552 236.356 6.79115 233.195 5.87891 229.592C4.96075 225.92 4.5 222.013 4.5 217.87C4.5 213.727 4.96018 209.844 5.87793 206.218L5.87891 206.216C6.79167 202.566 8.31662 199.405 10.4492 196.727C12.6214 194.057 15.5024 191.943 19.1074 190.391L19.1094 190.39C22.7434 188.8 27.2918 187.994 32.7734 187.994Z" fill="url(#paint7_linear_68_52)" stroke="#7F70FD"/>
</g>
<defs>
<filter id="filter0_d_68_52" x="134.695" y="196.69" width="90.2051" height="60.2522" filterUnits="userSpaceOnUse" color-interpolation-filters="sRGB">
<feFlood flood-opacity="0" result="BackgroundImageFix"/>
<feColorMatrix in="SourceAlpha" type="matrix" values="0 0 0 0 0 0 0 0 0 0 0 0 0 0 0 0 0 0 127 0" result="hardAlpha"/>
<feOffset dy="4"/>
<feGaussianBlur stdDeviation="2"/>
<feComposite in2="hardAlpha" operator="out"/>
<feColorMatrix type="matrix" values="0 0 0 0 0 0 0 0 0 0 0 0 0 0 0 0 0 0 0.25 0"/>
<feBlend mode="normal" in2="BackgroundImageFix" result="effect1_dropShadow_68_52"/>
<feBlend mode="normal" in="SourceGraphic" in2="effect1_dropShadow_68_52" result="shape"/>
</filter>
<filter id="filter1_d_68_52" x="98.5073" y="211.081" width="41.3021" height="21.8952" filterUnits="userSpaceOnUse" color-interpolation-filters="sRGB">
<feFlood flood-opacity="0" result="BackgroundImageFix"/>
<feColorMatrix in="SourceAlpha" type="matrix" values="0 0 0 0 0 0 0 0 0 0 0 0 0 0 0 0 0 0 127 0" result="hardAlpha"/>
<feOffset dy="4"/>
<feGaussianBlur stdDeviation="2"/>
<feComposite in2="hardAlpha" operator="out"/>
<feColorMatrix type="matrix" values="0 0 0 0 0 0 0 0 0 0 0 0 0 0 0 0 0 0 0.25 0"/>
<feBlend mode="normal" in2="BackgroundImageFix" result="effect1_dropShadow_68_52"/>
<feBlend mode="normal" in="SourceGraphic" in2="effect1_dropShadow_68_52" result="shape"/>
</filter>
<filter id="filter2_d_68_52" x="0" y="187.494" width="103.587" height="68.7519" filterUnits="userSpaceOnUse" color-interpolation-filters="sRGB">
<feFlood flood-opacity="0" result="BackgroundImageFix"/>
<feColorMatrix in="SourceAlpha" type="matrix" values="0 0 0 0 0 0 0 0 0 0 0 0 0 0 0 0 0 0 127 0" result="hardAlpha"/>
<feOffset dy="4"/>
<feGaussianBlur stdDeviation="2"/>
<feComposite in2="hardAlpha" operator="out"/>
<feColorMatrix type="matrix" values="0 0 0 0 0 0 0 0 0 0 0 0 0 0 0 0 0 0 0.25 0"/>
<feBlend mode="normal" in2="BackgroundImageFix" result="effect1_dropShadow_68_52"/>
<feBlend mode="normal" in="SourceGraphic" in2="effect1_dropShadow_68_52" result="shape"/>
</filter>
<linearGradient id="paint0_linear_68_52" x1="150.204" y1="17.8863" x2="35.7318" y2="95.3939" gradientUnits="userSpaceOnUse">
<stop stop-color="#D7524D"/>
<stop offset="1" stop-color="#D7974D"/>
</linearGradient>
<linearGradient id="paint1_linear_68_52" x1="92.3719" y1="74.5264" x2="199.094" y2="153.823" gradientUnits="userSpaceOnUse">
<stop stop-color="#5765F2"/>
<stop offset="0.798077" stop-color="#7F70FD"/>
</linearGradient>
<linearGradient id="paint2_linear_68_52" x1="112.047" y1="66.7757" x2="131.126" y2="104.933" gradientUnits="userSpaceOnUse">
<stop stop-color="#B1B543"/>
<stop offset="1" stop-color="#01A5B7"/>
</linearGradient>
<linearGradient id="paint3_linear_68_52" x1="187.821" y1="210.378" x2="222.586" y2="219.722" gradientUnits="userSpaceOnUse">
<stop offset="0.427885" stop-color="#43B581"/>
<stop offset="1" stop-color="#01A4B7"/>
</linearGradient>
<linearGradient id="paint4_linear_68_52" x1="143.264" y1="215.731" x2="181.965" y2="229.635" gradientUnits="userSpaceOnUse">
<stop offset="0.427885" stop-color="#43B581"/>
<stop offset="1" stop-color="#01A4B7"/>
</linearGradient>
<linearGradient id="paint5_linear_68_52" x1="111.105" y1="218.027" x2="132.077" y2="218.027" gradientUnits="userSpaceOnUse">
<stop stop-color="#5765F2"/>
<stop offset="1" stop-color="#43B581"/>
</linearGradient>
<linearGradient id="paint6_linear_68_52" x1="64.4839" y1="191.575" x2="102.905" y2="204.176" gradientUnits="userSpaceOnUse">
<stop stop-color="#8772FF"/>
<stop offset="0.615385" stop-color="#5765F2"/>
</linearGradient>
<linearGradient id="paint7_linear_68_52" x1="12.9728" y1="191.013" x2="55.6733" y2="206.66" gradientUnits="userSpaceOnUse">
<stop stop-color="#8772FF"/>
<stop offset="0.615385" stop-color="#5765F2"/>
</linearGradient>
<clipPath id="clip0_68_52">
<rect width="175" height="175" fill="white" transform="translate(25)"/>
</clipPath>
</defs>
</svg>
