<svg width="469" height="125" viewBox="0 0 469 125" fill="none" xmlns="http://www.w3.org/2000/svg">
<g clip-path="url(#clip0_68_53)">
<path d="M52.7307 41.1386H92.1573C100.743 41.1386 108.553 44.4689 114.37 49.8944C115.461 46.4534 116.057 42.7824 116.057 38.9752C116.057 19.0532 99.908 2.90439 79.986 2.90439H36.3348C16.4129 2.90439 0.264038 19.0532 0.264038 38.9752V92.5235L20.2116 75.046C20.1775 74.4157 20.152 74.3561 20.152 73.7258C20.152 55.7287 34.7421 41.1471 52.7307 41.1471V41.1386Z" fill="url(#paint0_linear_68_53)"/>
<path d="M114.362 49.8944C109.737 64.476 96.0922 75.046 79.9775 75.046H20.2115V75.6081C21.191 92.7194 35.3724 106.296 52.7306 106.296H106.117L124.736 122.079V73.7088C124.736 64.2971 120.741 55.8309 114.37 49.8859L114.362 49.8944Z" fill="url(#paint1_linear_68_53)"/>
<path d="M79.9775 75.0545C96.0923 75.0545 109.737 64.4845 114.362 49.9029C108.545 44.4774 100.734 41.1471 92.1488 41.1471H52.7221C34.7251 41.1471 20.1434 55.7372 20.1434 73.7258C20.1434 74.3646 20.169 74.4242 20.2031 75.046H79.9775V75.0545Z" fill="url(#paint2_linear_68_53)"/>
<path d="M55.9928 58.3776C55.9928 56.2398 54.2552 54.5022 52.1174 54.5022C49.9795 54.5022 48.242 56.2398 48.242 58.3776C48.242 60.5154 49.9795 62.253 52.1174 62.253C54.2552 62.253 55.9928 60.5154 55.9928 58.3776Z" fill="#FCF7EC"/>
<path d="M71.128 58.3776C71.128 56.2398 69.3905 54.5022 67.2526 54.5022C65.1148 54.5022 63.3773 56.2398 63.3773 58.3776C63.3773 60.5154 65.1148 62.253 67.2526 62.253C69.3905 62.253 71.128 60.5154 71.128 58.3776Z" fill="#FCF7EC"/>
<path d="M86.2718 58.3776C86.2718 56.2398 84.5343 54.5022 82.3964 54.5022C80.2586 54.5022 78.5211 56.2398 78.5211 58.3776C78.5211 60.5154 80.2586 62.253 82.3964 62.253C84.5343 62.253 86.2718 60.5154 86.2718 58.3776Z" fill="#FCF7EC"/>
</g>
<g filter="url(#filter0_d_68_53)">
<path d="M422.877 70.4899H422.377C421.311 70.4899 420.315 70.3651 419.385 70.1188C418.5 69.8016 417.716 69.4549 417.03 69.0807C414.12 67.3761 412.587 64.0336 412.587 58.8376C412.587 56.9143 412.811 55.3798 413.239 54.2145C413.736 52.9736 414.411 52.0019 415.254 51.2799L415.597 50.9792C416.385 50.3311 417.319 49.8429 418.404 49.5172L418.415 49.5133L418.425 49.5104C419.706 49.0621 421.153 48.6752 422.768 48.3522L423.131 48.2799L423.168 47.9118C423.234 47.2438 423.268 46.6061 423.268 45.9997C423.268 45.3631 423.3 44.7263 423.364 44.0895L423.365 44.0797C423.558 41.6322 423.942 39.6624 424.505 38.1559C425.137 36.6383 425.914 35.5009 426.82 34.7155L426.822 34.7145C427.679 33.965 428.677 33.4234 429.826 33.0924L430.328 32.9635C431.786 32.6469 433.479 32.486 435.411 32.486C437.278 32.486 438.905 32.6471 440.297 32.9635C441.659 33.273 442.824 33.8578 443.803 34.7145L443.817 34.7262C444.779 35.5074 445.551 36.6344 446.115 38.1393L446.118 38.1481L446.121 38.1559C446.747 39.6584 447.196 41.6239 447.455 44.067V44.8659L447.986 44.8327C450.052 44.7036 452.017 44.7365 453.881 44.9294C455.728 45.1205 457.185 45.5633 458.278 46.2311L458.287 46.236C461.203 47.9373 462.743 51.312 462.743 56.5836C462.743 60.303 461.812 62.8413 460.074 64.3395L460.068 64.3454C458.344 65.8848 455.778 66.874 452.309 67.2594L449.664 67.5534L449.218 67.6022V68.0504C449.218 69.2171 449.186 70.3176 449.122 71.3512C449.064 72.2665 448.98 73.1288 448.873 73.9391C447.838 74.2672 446.833 74.7045 445.857 75.2526C444.846 75.7919 443.902 76.433 443.026 77.1745L443.018 77.1803L443.01 77.1872C442.206 77.925 441.498 78.6997 440.89 79.5104C440.287 80.2509 439.835 80.9746 439.552 81.6823L439.547 81.696L439.543 81.7096C439.381 82.1932 439.37 82.6765 439.552 83.1315L439.56 83.151L439.569 83.1696C439.748 83.5276 440.023 83.8021 440.38 83.9811L440.43 84.0055L440.483 84.0192C440.824 84.1044 441.169 84.1043 441.509 84.0192L441.508 84.0182C441.985 83.9161 442.329 83.6167 442.519 83.1745C443.657 80.9624 445.197 79.2693 447.137 78.0797C449.142 76.8909 451.226 76.3983 453.4 76.5846V76.5836C454.781 76.7095 456.098 77.0552 457.353 77.6198L457.362 77.6237C458.652 78.1768 459.763 79.0378 460.694 80.2174L460.703 80.2292L460.713 80.2399C461.699 81.3493 462.451 82.7813 462.958 84.5534L462.96 84.5612L462.963 84.569C463.525 86.3199 463.721 88.4405 463.528 90.944V90.9518C463.403 93.0208 462.777 94.8592 461.656 96.4792C460.524 98.1142 459.044 99.4703 457.208 100.547L457.199 100.551L457.19 100.557C455.416 101.698 453.314 102.56 450.878 103.137L450.875 103.138C448.498 103.716 446.022 104.005 443.447 104.006C438.791 104.006 435.163 103.228 432.523 101.719L432.514 101.715L432.024 101.435C429.77 100.094 428.003 98.2715 426.716 95.9606L426.448 95.4586C425.193 92.9473 424.322 89.9151 423.845 86.3522L423.755 85.6325C423.357 82.1603 423.083 78.3614 422.933 74.235L422.877 72.4469V70.4899Z" fill="url(#paint3_linear_68_53)" stroke="#32B08E"/>
<path d="M378.357 42.384C386.146 42.384 392.253 43.7485 396.72 46.4289C401.04 49.0209 404.208 52.9923 406.213 58.3801L406.404 58.9065C407.239 61.2842 407.852 63.9924 408.24 67.0344V67.0354L408.242 67.0471C408.696 70.0258 408.923 73.1368 408.923 76.3801V76.3899C408.988 79.6331 408.826 82.91 408.437 86.2199L408.436 86.2297C408.111 89.5433 407.623 92.6919 406.975 95.676C406.337 98.5463 405.201 100.642 403.608 102.021C402.019 103.396 399.922 104.104 397.271 104.104C394.608 104.104 392.523 103.455 390.969 102.205C389.415 100.956 388.333 99.0602 387.763 96.4612L387.511 95.3127L386.859 96.2903C384.685 99.55 382.018 101.798 378.858 103.062L378.854 103.063C375.719 104.342 372.256 104.986 368.459 104.986C365.693 104.986 363.128 104.632 360.762 103.929C358.4 103.227 356.334 102.176 354.558 100.78L354.556 100.78L354.24 100.527C352.685 99.2446 351.433 97.6562 350.483 95.7561C349.477 93.7445 348.967 91.4386 348.967 88.8264C348.967 86.4715 349.38 84.3537 350.196 82.466C351.085 80.4977 352.29 78.7866 353.811 77.3293L353.819 77.3215C355.341 75.7987 357.153 74.5577 359.258 73.6008C361.378 72.6371 363.662 71.8967 366.112 71.3811L366.111 71.3801C370.724 70.457 374.635 69.0366 377.831 67.1057L377.838 67.1018C381.02 65.1127 383.462 62.8439 385.144 60.2883C385.533 59.7365 385.681 59.1302 385.502 58.5051C385.339 57.9349 385.006 57.4755 384.514 57.1477H384.513C384.084 56.82 383.579 56.7006 383.031 56.7697C382.389 56.7798 381.868 57.1187 381.478 57.6653C380.524 59.0011 379.343 60.2787 377.932 61.4973C376.593 62.6448 375.092 63.6353 373.429 64.467C371.765 65.299 369.936 65.9728 367.942 66.4875C366.024 66.934 364.041 67.1584 361.991 67.1584C358.208 67.1584 355.442 66.2921 353.609 64.6447C351.754 62.9127 350.829 60.7599 350.829 58.1516C350.829 55.7785 351.544 53.6643 352.98 51.7922L352.985 51.7863C354.439 49.8256 356.408 48.1381 358.904 46.7297C361.401 45.3216 364.324 44.2591 367.681 43.549L367.69 43.5471C371.047 42.7724 374.602 42.384 378.357 42.384ZM382.827 79.2375C382.272 79.0524 381.736 79.1521 381.279 79.5178L381.273 79.5227C379.399 81.0734 377.529 82.3615 375.665 83.3899C373.816 84.4099 371.605 85.2456 369.024 85.8908L369.005 85.8957L368.987 85.9016C368.445 86.0821 368.067 86.461 367.887 87.0022L367.877 87.0315L367.87 87.0617C367.784 87.4918 367.833 87.9409 367.985 88.3957C368.142 88.8695 368.416 89.2942 368.791 89.6692L368.826 89.7043L368.867 89.7317C369.38 90.0736 369.996 90.1816 370.67 90.1067L370.684 90.1057C373.107 89.7691 375.425 88.9266 377.635 87.5871L377.636 87.5881L377.646 87.5822C379.817 86.2003 381.826 84.7509 383.672 83.2346L383.681 83.2278C384.211 82.7729 384.541 82.2204 384.541 81.5744C384.541 81.0148 384.378 80.5089 384.039 80.0852H384.038C383.718 79.6847 383.312 79.399 382.827 79.2375Z" fill="url(#paint4_linear_68_53)" stroke="#32B08E"/>
</g>
<g filter="url(#filter1_d_68_53)">
<path d="M305.698 71.088C302.889 70.892 300.831 69.8467 299.524 67.952C298.218 66.0573 297.564 63.738 297.564 60.994C297.564 59.818 297.728 58.6747 298.054 57.564C298.381 56.4533 298.871 55.506 299.524 54.722C300.178 53.8727 301.027 53.2193 302.072 52.762C303.118 52.3047 304.326 52.1413 305.698 52.272C311.121 52.7293 316.184 52.9907 320.888 53.056C325.658 53.056 330.754 52.7947 336.176 52.272C337.614 52.1413 338.822 52.3047 339.802 52.762C340.848 53.2193 341.697 53.8727 342.35 54.722C343.069 55.506 343.592 56.4533 343.918 57.564C344.245 58.6747 344.408 59.818 344.408 60.994C344.408 63.738 343.755 66.0573 342.448 67.952C341.142 69.8467 339.018 70.892 336.078 71.088C333.4 71.284 330.819 71.4473 328.336 71.578C325.854 71.7087 323.371 71.774 320.888 71.774C318.471 71.774 316.021 71.7087 313.538 71.578C311.056 71.4473 308.442 71.284 305.698 71.088Z" fill="url(#paint5_linear_68_53)"/>
<path d="M336.224 52.7685C337.6 52.6436 338.714 52.8056 339.591 53.2148L339.602 53.2197C340.575 53.6455 341.355 54.249 341.954 55.0273L341.968 55.0439L341.981 55.0595C342.644 55.7824 343.131 56.661 343.438 57.705C343.751 58.7691 343.908 59.8651 343.908 60.9941C343.908 63.6564 343.276 65.8718 342.037 67.6679C340.84 69.403 338.879 70.3999 336.045 70.5888L336.042 70.5898C333.367 70.7855 330.789 70.9486 328.31 71.079C325.837 71.2092 323.362 71.2743 320.889 71.2744C318.48 71.2744 316.039 71.2093 313.564 71.079C311.085 70.9486 308.475 70.7846 305.734 70.5888H305.733C303.038 70.4008 301.137 69.4093 299.936 67.6679C298.698 65.8717 298.064 63.6565 298.064 60.9941C298.064 59.8651 298.221 58.7691 298.534 57.705C298.844 56.6512 299.304 55.7668 299.908 55.0419L299.915 55.0341L299.921 55.0273C300.519 54.2491 301.299 53.6455 302.272 53.2197C303.225 52.8028 304.346 52.6452 305.651 52.7695L305.656 52.7704C311.089 53.2286 316.164 53.4901 320.882 53.5556H320.889C325.676 53.5556 330.788 53.2935 336.225 52.7695L336.224 52.7685Z" stroke="#4E88BF"/>
</g>
<g filter="url(#filter2_d_68_53)">
<path d="M246.808 20.432C248.676 20.432 250.303 20.5931 251.695 20.9095C253.057 21.219 254.222 21.8038 255.201 22.6605L255.215 22.6722C256.176 23.4534 256.947 24.5806 257.512 26.0853L257.515 26.0941L257.518 26.1019C258.146 27.6081 258.596 29.5793 258.854 32.0306V32.0316C258.919 32.7429 258.983 33.6516 259.049 34.7592V34.7611C259.114 35.8044 259.18 36.9461 259.245 38.1859V38.1879C259.31 39.3638 259.376 40.5402 259.441 41.7162V41.7172C259.5 42.7161 259.529 43.6056 259.535 44.3861C257.703 45.7994 256.198 47.2811 255.032 48.8363C253.829 50.4403 252.765 52.336 251.839 54.5189C251.547 55.176 251.446 55.8229 251.619 56.4271L251.622 56.4379L251.626 56.4486C251.78 56.9113 252.027 57.3003 252.388 57.5717C252.766 57.8548 253.205 57.9512 253.668 57.8588L253.699 57.8519L253.728 57.8422C254.266 57.6628 254.679 57.2676 254.984 56.7338L254.991 56.722L254.997 56.7094C255.514 55.6753 256.063 54.6741 256.644 53.7054C257.224 52.7396 257.869 51.7723 258.579 50.8041L258.584 50.7982C260.634 47.9157 263.022 45.8197 265.746 44.4896L265.754 44.4847C268.493 43.0833 271.388 42.3842 274.444 42.3842C277.513 42.3842 280.174 42.9909 282.442 44.1879L282.448 44.1908C284.797 45.3971 286.729 47.0448 288.25 49.1361C289.778 51.2375 290.929 53.6962 291.699 56.5189V56.5199L291.704 56.5326C292.538 59.2909 292.956 62.2471 292.956 65.4037C292.956 67.6856 292.923 69.8695 292.858 71.9545V71.9701C292.858 73.9846 292.793 75.9994 292.663 78.014C292.533 80.0339 292.37 82.0867 292.175 84.1722C291.979 86.1943 291.75 88.3472 291.489 90.6312V90.6351C291.297 92.4266 290.913 94.0839 290.342 95.6088L290.34 95.6146C289.773 97.188 288.958 98.5323 287.898 99.6547L287.893 99.6605L287.888 99.6654C286.897 100.781 285.654 101.654 284.15 102.281L284.138 102.286L284.127 102.291C282.704 102.972 281.016 103.32 279.05 103.32C277.016 103.32 275.261 102.97 273.77 102.287L273.762 102.284L273.229 102.036C272.012 101.434 270.939 100.642 270.01 99.6586C269.014 98.5363 268.23 97.1908 267.663 95.6146L267.66 95.6088L267.455 95.0306C266.996 93.6674 266.681 92.2027 266.513 90.6351L266.512 90.6244C266.186 88.0884 265.959 85.5854 265.829 83.1156C265.764 81.8419 265.699 80.568 265.634 79.2943C265.568 78.0203 265.503 76.746 265.437 75.472L265.435 75.4301L265.427 75.39L265.362 75.142C265.198 74.5918 264.907 74.1406 264.466 73.8334H264.467C264.058 73.5062 263.589 73.3324 263.076 73.3324C262.532 73.3324 262.039 73.4697 261.628 73.7728C261.219 74.0742 260.931 74.509 260.743 75.0355L260.719 75.1049L260.715 75.1791C260.617 77.1361 260.501 79.0931 260.366 81.0502L260.225 83.0062L260.224 83.0179C260.094 85.5568 259.899 88.0962 259.638 90.6351C259.447 92.4204 259.034 94.0722 258.4 95.5922L258.395 95.6029L258.391 95.6146C257.823 97.1942 257.037 98.5417 256.038 99.6654C255.046 100.781 253.804 101.654 252.3 102.281L252.288 102.286L252.276 102.291C250.854 102.972 249.166 103.32 247.2 103.32C245.166 103.32 243.411 102.97 241.921 102.287L241.911 102.284L241.38 102.036C240.165 101.436 239.094 100.646 238.166 99.6654C237.167 98.5417 236.381 97.1941 235.812 95.6146L235.81 95.6088L235.604 95.0306C235.146 93.6683 234.831 92.2045 234.663 90.6381H234.664C234.338 87.3812 234.077 84.1898 233.882 81.0638L233.49 71.3617V67.9515C233.49 65.1463 233.522 62.2101 233.588 59.1429V59.142C233.653 56.0095 233.719 52.877 233.784 49.7445C233.915 46.6089 234.045 43.5385 234.176 40.5336L234.175 40.5326C234.37 37.4687 234.567 34.6331 234.763 32.0258C234.956 29.5694 235.342 27.5939 235.908 26.0853C236.472 24.5807 237.244 23.4534 238.205 22.6722L238.213 22.6664L238.22 22.6605C239.198 21.8048 240.361 21.2202 241.721 20.9105C243.18 20.5932 244.875 20.432 246.808 20.432Z" fill="url(#paint6_linear_68_53)" stroke="#7F70FD"/>
<path d="M199.474 19.55C203.956 19.55 207.974 19.9074 211.528 20.6183H211.529C215.147 21.329 218.299 22.4248 220.99 23.8986L220.998 23.9035L221.007 23.9074C222.905 24.8565 224.3 26.0438 225.222 27.4572L225.226 27.4631L225.229 27.4699C226.232 28.9109 226.856 30.4719 227.105 32.1574L227.109 32.1789C227.422 33.8053 227.392 35.5 227.014 37.2678C226.633 38.9824 225.997 40.6354 225.105 42.2277L225.102 42.2346C224.21 43.8901 223.097 45.387 221.759 46.7248C220.51 47.9734 219.125 48.9677 217.603 49.7121L217.297 49.8576C215.729 50.5464 214.032 50.9239 212.201 50.9875C210.467 50.9852 208.652 50.5202 206.753 49.5705C205.864 49.0937 204.819 48.7253 203.625 48.4582H203.626C202.398 48.117 201.012 47.9504 199.474 47.9504C197.074 47.9504 195.008 48.3166 193.295 49.0705C191.599 49.8168 190.195 50.8404 189.096 52.1457L189.091 52.1516L189.086 52.1584C188.069 53.4471 187.29 54.9033 186.75 56.5236L186.747 56.5324L186.744 56.5422C186.273 58.1591 186.038 59.8724 186.038 61.6799C186.038 63.4874 186.272 65.2316 186.742 66.9103L186.745 66.9201L186.748 66.9279C187.287 68.6135 188.066 70.1055 189.086 71.3976L189.091 71.4045L189.096 71.4103C190.195 72.7156 191.599 73.7393 193.295 74.4855C195.008 75.2394 197.074 75.6056 199.474 75.6057C201.004 75.6057 202.382 75.4732 203.601 75.2023L203.613 75.1994L203.626 75.1955C204.823 74.8631 205.867 74.4602 206.753 73.9846L206.754 73.9855C208.651 73.037 210.496 72.6032 212.295 72.6652L212.304 72.6662H212.312C214.196 72.6662 215.949 73.0735 217.576 73.8869C219.218 74.708 220.672 75.8135 221.938 77.2062L221.954 77.2238C223.289 78.5586 224.402 80.0844 225.294 81.8039V81.8049C226.121 83.3954 226.693 85.0469 227.011 86.7609C227.326 88.4659 227.325 90.1346 227.011 91.7697L227.01 91.7775L227.008 91.7853C226.76 93.3351 226.14 94.7976 225.138 96.176L225.132 96.1848C224.137 97.6144 222.763 98.8054 220.994 99.7531L220.99 99.7551C218.47 101.135 215.545 102.156 212.211 102.81L211.538 102.936L211.528 102.938C207.974 103.649 203.956 104.006 199.474 104.006C191.985 104.006 185.717 102.969 180.654 100.916L180.168 100.714C175.39 98.6575 171.506 95.8991 168.503 92.4445L167.914 91.7443C164.892 87.8848 162.734 83.4115 161.444 78.3166H161.445C160.149 73.133 159.5 67.6203 159.5 61.7775C159.5 55.935 160.149 50.4561 161.444 45.3391L161.445 45.3371C162.736 40.1751 164.894 35.7022 167.914 31.9094C170.993 28.1251 175.073 25.1333 180.17 22.9396L180.173 22.9377C185.318 20.6869 191.745 19.55 199.474 19.55Z" fill="url(#paint7_linear_68_53)" stroke="#7F70FD"/>
</g>
<defs>
<filter id="filter0_d_68_53" x="344.467" y="31.986" width="123.633" height="81.5" filterUnits="userSpaceOnUse" color-interpolation-filters="sRGB">
<feFlood flood-opacity="0" result="BackgroundImageFix"/>
<feColorMatrix in="SourceAlpha" type="matrix" values="0 0 0 0 0 0 0 0 0 0 0 0 0 0 0 0 0 0 127 0" result="hardAlpha"/>
<feOffset dy="4"/>
<feGaussianBlur stdDeviation="2"/>
<feComposite in2="hardAlpha" operator="out"/>
<feColorMatrix type="matrix" values="0 0 0 0 0 0 0 0 0 0 0 0 0 0 0 0 0 0 0.25 0"/>
<feBlend mode="normal" in2="BackgroundImageFix" result="effect1_dropShadow_68_53"/>
<feBlend mode="normal" in="SourceGraphic" in2="effect1_dropShadow_68_53" result="shape"/>
</filter>
<filter id="filter1_d_68_53" x="293.564" y="52.2285" width="54.844" height="27.5456" filterUnits="userSpaceOnUse" color-interpolation-filters="sRGB">
<feFlood flood-opacity="0" result="BackgroundImageFix"/>
<feColorMatrix in="SourceAlpha" type="matrix" values="0 0 0 0 0 0 0 0 0 0 0 0 0 0 0 0 0 0 127 0" result="hardAlpha"/>
<feOffset dy="4"/>
<feGaussianBlur stdDeviation="2"/>
<feComposite in2="hardAlpha" operator="out"/>
<feColorMatrix type="matrix" values="0 0 0 0 0 0 0 0 0 0 0 0 0 0 0 0 0 0 0.25 0"/>
<feBlend mode="normal" in2="BackgroundImageFix" result="effect1_dropShadow_68_53"/>
<feBlend mode="normal" in="SourceGraphic" in2="effect1_dropShadow_68_53" result="shape"/>
</filter>
<filter id="filter2_d_68_53" x="155" y="19.05" width="142.456" height="93.456" filterUnits="userSpaceOnUse" color-interpolation-filters="sRGB">
<feFlood flood-opacity="0" result="BackgroundImageFix"/>
<feColorMatrix in="SourceAlpha" type="matrix" values="0 0 0 0 0 0 0 0 0 0 0 0 0 0 0 0 0 0 127 0" result="hardAlpha"/>
<feOffset dy="4"/>
<feGaussianBlur stdDeviation="2"/>
<feComposite in2="hardAlpha" operator="out"/>
<feColorMatrix type="matrix" values="0 0 0 0 0 0 0 0 0 0 0 0 0 0 0 0 0 0 0.25 0"/>
<feBlend mode="normal" in2="BackgroundImageFix" result="effect1_dropShadow_68_53"/>
<feBlend mode="normal" in="SourceGraphic" in2="effect1_dropShadow_68_53" result="shape"/>
</filter>
<linearGradient id="paint0_linear_68_53" x1="89.4317" y1="12.7759" x2="7.66558" y2="68.1384" gradientUnits="userSpaceOnUse">
<stop stop-color="#D7524D"/>
<stop offset="1" stop-color="#D7974D"/>
</linearGradient>
<linearGradient id="paint1_linear_68_53" x1="48.1228" y1="53.2332" x2="124.353" y2="109.873" gradientUnits="userSpaceOnUse">
<stop stop-color="#5765F2"/>
<stop offset="0.798077" stop-color="#7F70FD"/>
</linearGradient>
<linearGradient id="paint2_linear_68_53" x1="62.1763" y1="47.6969" x2="75.804" y2="74.9523" gradientUnits="userSpaceOnUse">
<stop stop-color="#B1B543"/>
<stop offset="1" stop-color="#01A5B7"/>
</linearGradient>
<linearGradient id="paint3_linear_68_53" x1="417.57" y1="51.2398" x2="466.472" y2="64.3842" gradientUnits="userSpaceOnUse">
<stop offset="0.427885" stop-color="#43B581"/>
<stop offset="1" stop-color="#01A4B7"/>
</linearGradient>
<linearGradient id="paint4_linear_68_53" x1="354.895" y1="58.7701" x2="409.333" y2="78.3272" gradientUnits="userSpaceOnUse">
<stop offset="0.427885" stop-color="#43B581"/>
<stop offset="1" stop-color="#01A4B7"/>
</linearGradient>
<linearGradient id="paint5_linear_68_53" x1="309.658" y1="62" x2="339.158" y2="62" gradientUnits="userSpaceOnUse">
<stop stop-color="#5765F2"/>
<stop offset="1" stop-color="#43B581"/>
</linearGradient>
<linearGradient id="paint6_linear_68_53" x1="244.079" y1="24.7912" x2="298.123" y2="42.5159" gradientUnits="userSpaceOnUse">
<stop stop-color="#8772FF"/>
<stop offset="0.615385" stop-color="#5765F2"/>
</linearGradient>
<linearGradient id="paint7_linear_68_53" x1="171.621" y1="24" x2="231.686" y2="46.0103" gradientUnits="userSpaceOnUse">
<stop stop-color="#8772FF"/>
<stop offset="0.615385" stop-color="#5765F2"/>
</linearGradient>
<clipPath id="clip0_68_53">
<rect width="125" height="125" fill="white"/>
</clipPath>
</defs>
</svg>
